<?xml version="1.0" encoding="UTF-8" standalone="no"?><!DOCTYPE svg PUBLIC "-//W3C//DTD SVG 1.1//EN" "http://www.w3.org/Graphics/SVG/1.1/DTD/svg11.dtd"><svg width="100%" height="100%" viewBox="0 0 57 57" version="1.1" xmlns="http://www.w3.org/2000/svg" xmlns:xlink="http://www.w3.org/1999/xlink" xml:space="preserve" style="fill-rule:evenodd;clip-rule:evenodd;stroke-linejoin:round;stroke-miterlimit:1.41421;"><g id="Livello2"><g><rect x="0" y="0" width="57" height="57" style="fill:none;"/><path d="M32.063,28.5l-3.563,0l0,-12.469l0,-1.781l16.031,0c3.933,0 7.125,3.193 7.125,7.125l0,7.125c0,3.932 -3.192,7.125 -7.125,7.125l-19.593,0l-0.001,7.125l-3.562,0l0,-7.125l-17.813,0l0,-3.563l17.813,-17.812l3.563,0l0,17.812l19.593,0c1.966,0.001 3.563,-1.596 3.563,-3.562l0,-7.125c0,-1.966 -1.597,-3.562 -3.563,-3.563l-12.468,0l0,10.688Zm-24.047,3.562l13.359,0l0,-13.359l-13.359,13.359Z"/></g></g></svg>